<?xml version="1.0" standalone="no"?>
<!DOCTYPE svg PUBLIC "-//W3C//DTD SVG 20010904//EN"
 "http://www.w3.org/TR/2001/REC-SVG-20010904/DTD/svg10.dtd">
<svg version="1.0" xmlns="http://www.w3.org/2000/svg"
 width="700.000000pt" height="700.000000pt" viewBox="0 0 700.000000 700.000000"
 preserveAspectRatio="xMidYMid meet">
<metadata>
Created by potrace 1.14, written by Peter Selinger 2001-2017
</metadata>
<g transform="translate(0.000000,700.000000) scale(0.100000,-0.100000)"
fill="#000000" stroke="none">
<path d="M3344 6961 c-121 -33 -226 -92 -459 -256 -71 -51 -161 -112 -200
-136 -38 -23 -464 -242 -945 -485 -1297 -655 -1548 -782 -1621 -825 l-66 -38
-6 -452 c-8 -521 -7 -1695 2 -2493 l6 -549 95 -55 c143 -83 668 -348 900 -455
253 -117 692 -336 1030 -514 606 -321 754 -402 905 -497 88 -55 205 -124 260
-153 l100 -53 144 0 144 0 101 54 c56 29 169 96 253 149 189 120 364 212 1202
633 854 429 1599 809 1677 856 101 62 91 12 105 538 9 358 9 727 0 1600 -7
624 -13 1183 -14 1242 l-2 107 -35 36 c-77 80 -261 186 -605 348 -110 52 -333
165 -495 251 -378 201 -928 476 -1190 596 -243 111 -265 124 -524 298 -205
138 -354 218 -461 247 -96 26 -218 29 -301 6z m356 -388 c47 -22 166 -94 265
-160 191 -127 444 -263 1090 -586 376 -188 1288 -659 1421 -735 l82 -46 8
-326 c10 -426 8 -2565 -3 -2700 l-8 -104 -43 -29 c-45 -30 -239 -130 -1470
-758 -543 -277 -808 -418 -985 -525 -355 -214 -514 -284 -611 -270 -58 9 -168
63 -345 170 -79 48 -198 112 -265 142 -169 77 -441 219 -861 449 -198 108
-457 244 -575 302 -555 270 -937 468 -972 501 -16 16 -18 91 -24 1092 -4 591
-3 1295 1 1563 l7 488 42 26 c22 15 210 113 416 218 411 211 449 232 1040 570
716 410 1000 553 1435 722 101 39 116 42 190 39 69 -2 91 -8 165 -43z"/>
<path d="M4571 5920 c-67 -14 -160 -62 -223 -115 l-58 -47 -41 16 c-115 46
-297 59 -437 30 -170 -35 -307 -110 -438 -239 -74 -73 -98 -106 -133 -175 -43
-89 -71 -193 -71 -270 0 -166 101 -368 249 -501 113 -102 215 -146 375 -160
173 -15 228 -37 194 -77 -9 -9 -24 -33 -34 -52 -23 -44 -25 -188 -6 -369 16
-149 6 -231 -39 -309 -39 -70 -85 -101 -331 -227 -280 -144 -396 -214 -472
-286 -77 -71 -105 -129 -87 -179 10 -30 9 -32 -25 -46 -25 -10 -44 -12 -62 -6
-29 9 -41 26 -117 158 -61 106 -134 182 -212 220 -54 27 -66 29 -183 29 -69 0
-173 -4 -231 -9 -122 -10 -181 -4 -228 25 l-34 21 67 64 c44 42 76 83 94 121
25 54 27 67 27 198 0 137 -1 142 -32 207 -40 86 -108 152 -198 194 -243 115
-609 31 -755 -174 -103 -143 -91 -305 36 -503 16 -25 16 -26 -36 -80 -115
-118 -195 -264 -226 -408 -18 -86 -18 -259 0 -354 59 -305 261 -639 556 -920
237 -226 457 -359 835 -507 88 -35 230 -91 315 -125 114 -46 160 -60 173 -53
9 5 17 13 17 18 0 25 -202 161 -530 355 -397 235 -578 393 -674 589 -93 190
-133 507 -86 690 77 301 340 458 770 460 143 1 146 1 214 -31 75 -36 260 -163
250 -172 -3 -3 -50 -8 -104 -11 -107 -6 -142 -21 -167 -71 -15 -30 -19 -166
-13 -388 5 -197 5 -196 -100 -187 -202 19 -225 19 -243 2 -15 -16 -17 -48 -17
-302 0 -324 1 -329 72 -360 39 -17 72 -19 351 -19 334 0 326 1 327 -55 0 -14
-5 -60 -12 -103 -16 -107 -2 -137 79 -167 86 -32 174 -35 365 -11 92 12 183
21 202 21 117 0 146 87 146 442 0 220 -3 214 119 202 130 -13 188 -11 205 6
16 17 56 277 56 362 0 118 -47 226 -118 273 -66 44 -141 50 -346 31 -138 -13
-196 -15 -245 -7 -35 6 -65 12 -66 13 -1 2 1 34 5 73 15 133 -15 241 -70 252
-17 3 -30 9 -30 13 0 14 142 140 187 167 129 76 514 70 721 -11 187 -73 329
-216 383 -384 30 -94 37 -259 15 -375 -76 -401 -354 -736 -992 -1193 -148
-106 -163 -120 -149 -133 14 -14 20 -14 58 0 23 9 161 61 307 116 415 156 511
199 690 308 333 202 629 434 901 705 462 462 720 907 804 1385 21 121 21 357
-1 483 -33 196 -115 405 -208 529 -156 207 -479 411 -821 518 -171 54 -257 94
-281 130 -15 23 -53 159 -54 193 0 7 37 37 83 66 45 30 96 68 112 85 28 31 30
37 29 114 -1 93 -21 150 -72 209 -57 64 -180 99 -281 78z m-1509 -3367 l97 -6
-5 -41 c-6 -43 20 -216 37 -248 15 -29 56 -32 180 -15 163 22 189 14 189 -62
0 -25 -7 -83 -16 -128 -16 -81 -17 -82 -44 -76 -25 4 -170 -9 -243 -23 -15 -3
-35 -17 -43 -30 -15 -22 -15 -32 0 -111 20 -109 20 -157 1 -176 -20 -20 -162
-32 -256 -21 -64 8 -75 12 -88 35 -13 24 -13 38 4 128 28 156 13 172 -144 152
-201 -26 -230 -14 -238 91 -7 89 3 153 32 186 21 24 29 27 87 26 34 0 97 -4
139 -9 76 -8 77 -8 95 20 16 25 17 36 6 124 -16 129 -15 148 8 171 22 22 46
24 202 13z"/>
</g>
</svg>
